<svg width="60" height="60" viewBox="0 0 60 60" fill="none" xmlns="http://www.w3.org/2000/svg">
<path fill-rule="evenodd" clip-rule="evenodd" d="M11.3242 12.5C8.17556 12.5 5.62305 15.0525 5.62305 18.2012V38.9328C5.62305 42.0815 8.17555 44.634 11.3242 44.634H30.5229C30.2215 43.6441 30.0403 42.6019 29.9961 41.5243H11.3242C9.89302 41.5243 8.73279 40.364 8.73279 38.9328V18.2012C8.73279 16.77 9.89302 15.6097 11.3242 15.6097H42.4217C43.8529 15.6097 45.0131 16.77 45.0131 18.2012V28.8369C46.11 29.0691 47.1536 29.4459 48.1229 29.9463V18.2012C48.1229 15.0525 45.5704 12.5 42.4217 12.5H11.3242Z" fill="#BEBEBE"/>
<path fill-rule="evenodd" clip-rule="evenodd" d="M42.4216 30.1215C36.4105 30.1215 31.5375 34.9944 31.5375 41.0056C31.5375 47.0167 36.4105 51.8897 42.4216 51.8897C48.4327 51.8897 53.3057 47.0167 53.3057 41.0056C53.3057 34.9944 48.4327 30.1215 42.4216 30.1215ZM28.4277 41.0056C28.4277 33.277 34.693 27.0117 42.4216 27.0117C50.1502 27.0117 56.4154 33.277 56.4154 41.0056C56.4154 48.7341 50.1502 54.9994 42.4216 54.9994C34.693 54.9994 28.4277 48.7341 28.4277 41.0056Z" fill="#BEBEBE"/>
</svg>
