<svg width="50" height="50" viewBox="0 0 50 50" fill="none" xmlns="http://www.w3.org/2000/svg">
<path d="M25.0809 36.6368C24.9763 36.6372 24.8747 36.6019 24.7929 36.5368C24.3539 36.1848 14.0439 27.8698 12.5009 22.9478C12.0854 21.8077 11.9239 20.5906 12.0275 19.3815C12.1312 18.1725 12.4975 17.0006 13.1009 15.9478C13.5753 15.1456 14.2316 14.4662 15.017 13.9643C15.8023 13.4625 16.6946 13.1523 17.6219 13.0588C19.0436 12.9241 20.476 13.1568 21.782 13.7346C23.0879 14.3124 24.2235 15.2161 25.0799 16.3588C25.9361 15.2158 27.0717 14.3121 28.3777 13.7342C29.6836 13.1563 31.1162 12.9238 32.5379 13.0588C33.4652 13.1523 34.3575 13.4625 35.1428 13.9643C35.9282 14.4662 36.5845 15.1456 37.0589 15.9478C37.6636 17.0043 38.0299 18.1802 38.1324 19.3932C38.2348 20.6062 38.0708 21.8269 37.6519 22.9698C36.1169 27.8698 25.8059 36.1838 25.3669 36.5358C25.2858 36.6009 25.1849 36.6365 25.0809 36.6368Z" stroke="black" stroke-width="2"/>
</svg>
