<svg width="16" height="19" viewBox="0 0 16 19" fill="none" xmlns="http://www.w3.org/2000/svg">
<path d="M8.36899 18.7495C8.1494 18.9003 7.85964 18.9003 7.64005 18.7495C6.45155 17.9284 0.612045 13.588 0.635815 8.26229C0.635815 6.33336 1.41216 4.48344 2.79406 3.11948C4.17596 1.75552 6.05022 0.989258 8.00452 0.989258C9.95882 0.989258 11.8331 1.75552 13.215 3.11948C14.5969 4.48344 15.3732 6.33336 15.3732 8.26229C15.3732 13.8774 8.65423 18.554 8.36899 18.7495ZM8.00452 2.24837C6.38644 2.24837 4.83462 2.88278 3.69047 4.01208C2.54631 5.14138 1.90353 6.67304 1.90353 8.27012C1.90353 12.3233 6.01772 15.9354 7.70736 17.2418C7.88253 17.3773 8.12615 17.3763 8.30054 17.2398C9.94837 15.9503 14.1278 12.2784 14.1055 8.27012C14.1055 6.67304 13.4627 5.14138 12.3186 4.01208C11.1744 2.88278 9.6226 2.24837 8.00452 2.24837ZM8.00452 12.2195C7.2244 12.2117 6.46398 11.9768 5.81859 11.5442C5.1732 11.1116 4.67158 10.5005 4.37665 9.78762C4.08173 9.07474 4.00662 8.2918 4.16075 7.53695C4.31487 6.7821 4.69135 6.08894 5.243 5.54445C5.79465 4.99996 6.4969 4.62837 7.26168 4.47625C8.02646 4.32413 8.81973 4.39826 9.54199 4.68935C10.2642 4.98045 10.8834 5.47556 11.3217 6.11257C11.76 6.74957 11.998 7.50013 12.0058 8.27012C12.0037 9.31691 11.5815 10.3202 10.8315 11.0604C10.0816 11.8006 9.06509 12.2174 8.00452 12.2195ZM8.00452 5.57207C7.46387 5.57207 6.93537 5.7303 6.48584 6.02677C6.03631 6.32323 5.68595 6.74461 5.47905 7.23762C5.27215 7.73062 5.21802 8.27311 5.3235 8.79648C5.42897 9.31986 5.68931 9.8006 6.07161 10.1779C6.4539 10.5553 6.94097 10.8122 7.47123 10.9164C8.00148 11.0205 8.55111 10.967 9.0506 10.7628C9.55009 10.5586 9.97701 10.2128 10.2774 9.76908C10.5777 9.32539 10.7381 8.80374 10.7381 8.27012C10.736 7.55518 10.4473 6.87011 9.93513 6.36457C9.42295 5.85903 8.72886 5.57413 8.00452 5.57207Z" fill="#808080"/>
</svg>
